<svg xmlns="http://www.w3.org/2000/svg" xmlns:xlink="http://www.w3.org/1999/xlink" viewBox="0 0 407.8 104.6"><defs><style>.cls-1{fill:url(#linear-gradient);}</style><linearGradient id="linear-gradient" y1="52.3" x2="407.8" y2="52.3" gradientUnits="userSpaceOnUse"><stop offset="0" stop-color="#30e3ea"/><stop offset="1" stop-color="#6722ff"/></linearGradient></defs><g id="Layer_2" data-name="Layer 2"><g id="Layer_1-2" data-name="Layer 1"><path class="cls-1" d="M81.6.8A14.06,14.06,0,0,0,68.7,9.4l-21,54.4L26.9,10A13.87,13.87,0,0,0,13.5.7,13.42,13.42,0,0,0,0,14.1a19.24,19.24,0,0,0,1.4,6.2L32.1,93.7c2.7,6.5,7.9,10.1,14.6,10.1H48c6.7,0,11.8-3.6,14.6-10.1l30.9-74a14.44,14.44,0,0,0,1.3-5.8A12.86,12.86,0,0,0,81.6.8ZM287.5,1c-5,0-9.1,2.5-12.5,7.5L254.1,38.2,233.6,8.9c-2.3-3.3-6-7.7-12.8-7.7a13.36,13.36,0,0,0-13.5,13.1,15.19,15.19,0,0,0,3.2,9.3l30,40.7V90.2a13.5,13.5,0,0,0,27,0V63.8l30-40.4a15.44,15.44,0,0,0,3.3-9.1C300.7,6.5,295.3,1,287.5,1ZM151.6,0a52.3,52.3,0,1,0,52.3,52.3A52.28,52.28,0,0,0,151.6,0Zm0,78a25.7,25.7,0,1,1,25.7-25.7A25.69,25.69,0,0,1,151.6,78ZM355.5,0a52.3,52.3,0,1,0,52.3,52.3A52.28,52.28,0,0,0,355.5,0Zm0,78a25.7,25.7,0,1,1,25.7-25.7A25.69,25.69,0,0,1,355.5,78Z"/></g></g></svg>