<?xml version="1.0" encoding="utf-8"?>
<!-- Generator: Adobe Illustrator 27.2.0, SVG Export Plug-In . SVG Version: 6.00 Build 0)  -->
<svg version="1.1" id="Layer_1" xmlns="http://www.w3.org/2000/svg" xmlns:xlink="http://www.w3.org/1999/xlink" x="0px" y="0px"
	 viewBox="0 0 3108.9 458.2" style="enable-background:new 0 0 3108.9 458.2;" xml:space="preserve">
<style type="text/css">
	.st0{fill:#CC4827;}
	.st1{fill:#FFFFFF;}
</style>
<g>
	<g>
		<g>
			<g>
				<path class="st0" d="M107.7,110.9c1-1.5,2.1-2.9,3.4-4.1c0,0,0.1-0.1,0.1-0.1c0.1-0.1,0.2-0.2,0.3-0.3c0.1-0.1,0.2-0.2,0.3-0.3
					c0,0,0.1-0.1,0.1-0.1c2.1-1.8,4.4-3.3,6.8-4.3c0.1,0,0.2-0.1,0.3-0.1c0.1,0,0.1-0.1,0.2-0.1c3-1.2,6.2-1.8,9.3-1.7
					c0,0,0,0,0.1,0c0.2,0,0.3,0,0.5,0c0.1,0,0.2,0,0.3,0c0.1,0,0.2,0,0.3,0c0.1,0,0.3,0,0.4,0c0,0,0,0,0.1,0c3.1,0.2,6.2,1,9.1,2.4
					c0.1,0,0.1,0.1,0.2,0.1c0.1,0,0.2,0.1,0.3,0.1c2.4,1.2,4.6,2.8,6.5,4.8c0,0,0.1,0.1,0.1,0.1c0.1,0.1,0.2,0.2,0.3,0.3
					c0.1,0.1,0.2,0.2,0.3,0.3c0,0,0.1,0.1,0.1,0.1c1.2,1.4,2.2,2.8,3.1,4.4l84.2,145.7c27.4-26.7,60.8-46.5,101-46.2
					c44.1-0.3,84,24.8,114.2,56.4c2.2-12.5,3.3-25.3,3.3-38.3c0-122.4-99.2-221.5-221.5-221.5S9.8,107.7,9.8,230
					c0,7.4,0.4,14.8,1.1,22L107.7,110.9z"/>
				<path class="st0" d="M432.7,319.5c-0.1-0.1-0.2-0.2-0.3-0.3c0,0-1.8-2.4-1.8-2.4c-17.3-21.4-39.4-41.3-64.9-51.4
					c-11.1-4.3-21.8-6.2-33.2-5.5c-35.2,1.8-61.8,28.7-82.8,55.2c-1.4,1.8-3,3.5-4.9,4.9c-13.9,10.8-31.7,3.2-37.7-10.1l-80.4-139
					L27.1,316c33.6,79.6,112.4,135.5,204.2,135.5c90.1,0,167.6-53.8,202.2-130.9C433.2,320.3,433,319.9,432.7,319.5z"/>
			</g>
		</g>
	</g>
	<g>
		<path class="st1" d="M570.6,207.7V151h49.5V63.4h64.3V151h63.8v56.7h-63.8v97.6c0,23.8,11,34.8,34.8,34.8h29v56.7h-29
			c-67.6,0-99-31.4-99-95.2v-93.8H570.6z"/>
		<path class="st1" d="M965.9,151h64.8l-97.1,245.7h-72.4L764,151h69.5l66.2,180.9L965.9,151z"/>
		<path class="st1" d="M1290.7,247.7v149h-64.3V259.1c0-31.9-22.9-54.3-55.7-54.3c-31.9,0-55.7,22.4-55.7,54.3v137.6h-64.3V151h64.3
			v31.9c17.1-22.4,44.3-36.7,76.7-36.7C1250.7,146.2,1290.7,189.1,1290.7,247.7z"/>
		<path class="st1" d="M1456.8,146.2c74.8,0,131.4,55.2,131.4,127.6c0,72.4-56.7,127.6-131.4,127.6s-131.4-55.2-131.4-127.6
			C1325.4,201.5,1382,146.2,1456.8,146.2z M1456.8,342.9c37.1,0,64.8-29.5,64.8-69c0-39-27.6-68.6-64.8-68.6
			c-36.7,0-64.8,29.5-64.8,68.6C1392,313.4,1420.1,342.9,1456.8,342.9z"/>
		<path class="st1" d="M1786.9,151h64.8l-97.1,245.7h-72.4L1585,151h69.5l66.2,180.9L1786.9,151z"/>
		<path class="st1" d="M1904.1,44.4c20.9,0,38.6,17.1,38.6,38.6c0,20.9-17.6,38.6-38.6,38.6c-21.4,0-39-17.6-39-38.6
			C1865,61.5,1882.6,44.4,1904.1,44.4z M1871.7,396.7V151h64.3v245.7H1871.7z"/>
		<path class="st1" d="M2225.2,247.7v149h-64.3V259.1c0-31.9-22.9-54.3-55.7-54.3c-31.9,0-55.7,22.4-55.7,54.3v137.6h-64.3V151h64.3
			v31.9c17.1-22.4,44.3-36.7,76.7-36.7C2185.2,146.2,2225.2,189.1,2225.2,247.7z"/>
		<path class="st1" d="M2433.9,151h65.2l-135.2,340.9h-65.2l34.3-86.7L2232.5,151h69.5l66.2,180L2433.9,151z"/>
		<path class="st1" d="M2516.2,315.7c22.9,0,42.4,19,42.4,42.9c0,22.4-19.5,42.4-42.4,42.4c-23.8,0-42.9-20-42.9-42.4
			C2473.4,334.8,2492.4,315.7,2516.2,315.7z"/>
		<path class="st1" d="M2662.3,317.2c2.9,22.4,18.6,33.3,43.8,33.3c26.7,0,43.3-11.4,43.3-25.7c0-46.2-144.3-2.9-144.3-100.9
			c0-44.3,43.3-77.6,100.9-77.6c58.6,0,97.6,28.1,104.7,70.9l-63.8,13.3c-3.3-22.4-18.1-33.3-40.9-33.3c-20.5,0-36.2,9.5-36.2,23.8
			c0,46.7,144.3,3.3,144.3,102.8c0,44.3-48.1,77.6-108.1,77.6c-60.9,0-100.9-28.1-108.1-70.9L2662.3,317.2z"/>
		<path class="st1" d="M3099.8,396.7h-80.9l-73.3-93.8l-30.9,33.8v60h-64.3V44.4h64.3V251l88.1-100h80.9l-94.3,103.8L3099.8,396.7z"
			/>
	</g>
</g>
</svg>
